<svg xmlns="http://www.w3.org/2000/svg" xmlns:xlink="http://www.w3.org/1999/xlink" width="83.729" height="24.124" viewBox="0 0 83.729 24.124">
  <defs>
    <clipPath id="clip-path">
      <rect id="Rechteck_472" data-name="Rechteck 472" width="83.729" height="24.124" transform="translate(0 0)" fill="none"/>
    </clipPath>
  </defs>
  <g id="Gruppe_1210" data-name="Gruppe 1210" transform="translate(-17 99)">
    <g id="Gruppe_1205" data-name="Gruppe 1205" transform="translate(17 -99)" clip-path="url(#clip-path)">
      <path id="Pfad_1136" data-name="Pfad 1136" d="M260.426,71.654v-2.2a.141.141,0,0,1,.16-.16H262.8a.141.141,0,0,1,.16.16v2.2a.141.141,0,0,1-.16.159h-2.218a.141.141,0,0,1-.16-.159" transform="translate(-179.234 -47.689)" fill="#fddb3a"/>
      <path id="Pfad_1137" data-name="Pfad 1137" d="M90.211,10.85H87.722a.141.141,0,0,1-.16-.16V6.654L84.275.176Q84.211,0,84.4,0h2.505a.288.288,0,0,1,.255.159l1.819,3.7h.048l1.787-3.7A.248.248,0,0,1,91.073,0H93.53q.191,0,.128.176L90.371,6.654v4.037a.141.141,0,0,1-.16.16" transform="translate(-57.99 0)" fill="#fff"/>
      <path id="Pfad_1138" data-name="Pfad 1138" d="M120.947,10.85H118.41a.132.132,0,0,1-.08-.048.093.093,0,0,1-.032-.064V2.585c0-.042-.027-.075-.08-.1H115.49a.092.092,0,0,1-.064-.032l-.016-.016a.014.014,0,0,0-.016-.016.222.222,0,0,1-.016-.1V.159A.147.147,0,0,1,115.49,0h8.377a.154.154,0,0,1,.112.048.046.046,0,0,1,.016.032.108.108,0,0,1,.032.08V2.33a.173.173,0,0,1-.048.128.109.109,0,0,1-.08.032h-2.7a.093.093,0,0,0-.064.016l-.032.032v8.2a.214.214,0,0,1-.08.1.127.127,0,0,1-.08.016" transform="translate(-79.407 0)" fill="#fff"/>
      <path id="Pfad_1139" data-name="Pfad 1139" d="M146.547,10.691V.159a.141.141,0,0,1,.16-.159H149.2a.141.141,0,0,1,.16.159V4a.085.085,0,0,0,.1.1H152.4a.085.085,0,0,0,.1-.1V.159a.141.141,0,0,1,.16-.159h2.489a.141.141,0,0,1,.16.159V10.691a.141.141,0,0,1-.16.16h-2.489a.141.141,0,0,1-.16-.16v-4a.085.085,0,0,0-.1-.1h-2.952a.085.085,0,0,0-.1.1v4a.141.141,0,0,1-.16.16h-2.489a.141.141,0,0,1-.16-.16" transform="translate(-100.859 0)" fill="#fff"/>
      <path id="Pfad_1140" data-name="Pfad 1140" d="M180.276,10.691V.159a.141.141,0,0,1,.16-.159h7.1a.141.141,0,0,1,.159.159V2.218a.141.141,0,0,1-.159.16H183.18a.085.085,0,0,0-.1.1V4.117a.085.085,0,0,0,.1.1h3.574a.141.141,0,0,1,.16.159V6.382a.141.141,0,0,1-.16.16H183.18a.085.085,0,0,0-.1.1V8.377a.085.085,0,0,0,.1.1h4.356a.141.141,0,0,1,.159.16v2.058a.141.141,0,0,1-.159.16h-7.1a.141.141,0,0,1-.16-.16" transform="translate(-124.072 0)" fill="#fff"/>
      <path id="Pfad_1141" data-name="Pfad 1141" d="M208.784,10.691V.159a.141.141,0,0,1,.16-.159h2.346a.261.261,0,0,1,.271.159L214.832,6.3h.064V.159a.141.141,0,0,1,.16-.159h2.234a.141.141,0,0,1,.16.159V10.691a.141.141,0,0,1-.16.16h-2.346a.261.261,0,0,1-.271-.16l-3.239-6.127h-.1v6.127a.141.141,0,0,1-.16.16h-2.234a.141.141,0,0,1-.16-.16" transform="translate(-143.692 0)" fill="#fff"/>
      <path id="Pfad_1142" data-name="Pfad 1142" d="M0,23.773V1.061Q0,.717.372.717h5.5a.614.614,0,0,1,.632.344l5.835,12.216h.149L18.174,1.061a.614.614,0,0,1,.632-.344h5.426q.371,0,.372.344V23.773q0,.344-.372.344H19.066q-.372,0-.372-.344V11.729h-.186L13.974,21.9c-.1.239-.342.249-.664.249l-2.448-.017c-.273,0-.518.049-.716-.249L6.1,11.729H5.909V23.773q0,.344-.372.344H.372Q0,24.118,0,23.773" transform="translate(0 -0.493)" fill="#fff"/>
      <path id="Pfad_1143" data-name="Pfad 1143" d="M118.909,53.146V42.615a.141.141,0,0,1,.16-.16h2.346a.261.261,0,0,1,.271.16l3.271,6.143h.064V42.615a.141.141,0,0,1,.16-.16h2.234a.141.141,0,0,1,.16.16V53.146a.141.141,0,0,1-.16.16h-2.346a.261.261,0,0,1-.271-.16l-3.239-6.127h-.1v6.127a.141.141,0,0,1-.16.16h-2.234a.141.141,0,0,1-.16-.16" transform="translate(-81.837 -29.219)" fill="#fff"/>
      <path id="Pfad_1144" data-name="Pfad 1144" d="M152.331,53.146V42.615a.141.141,0,0,1,.16-.16h2.489a.141.141,0,0,1,.16.16V53.146a.141.141,0,0,1-.16.16h-2.489a.141.141,0,0,1-.16-.16" transform="translate(-104.839 -29.219)" fill="#fff"/>
      <path id="Pfad_1145" data-name="Pfad 1145" d="M170.337,53.306H167.8a.129.129,0,0,1-.079-.048.091.091,0,0,1-.032-.064V45.04c0-.043-.027-.075-.08-.1H164.88a.093.093,0,0,1-.064-.032L164.8,44.9a.014.014,0,0,0-.016-.016.223.223,0,0,1-.016-.1v-2.17a.148.148,0,0,1,.112-.16h8.377a.153.153,0,0,1,.112.048.046.046,0,0,1,.016.032.109.109,0,0,1,.032.08v2.17a.173.173,0,0,1-.048.128.109.109,0,0,1-.08.032h-2.7a.092.092,0,0,0-.064.016l-.032.032v8.2a.212.212,0,0,1-.08.1.126.126,0,0,1-.08.016" transform="translate(-113.399 -29.219)" fill="#fff"/>
      <path id="Pfad_1146" data-name="Pfad 1146" d="M92.969,52.428a5.271,5.271,0,0,1-5.138,0,3.457,3.457,0,0,1-1.5-1.928,10.028,10.028,0,0,1-.319-2.875,10.029,10.029,0,0,1,.319-2.876,3.458,3.458,0,0,1,1.5-1.928,5.271,5.271,0,0,1,5.138,0,3.456,3.456,0,0,1,1.5,1.928,9.644,9.644,0,0,1,.319,2.876,9.643,9.643,0,0,1-.319,2.875,3.455,3.455,0,0,1-1.5,1.928m-3.957-2.7a1.5,1.5,0,0,0,2.777,0,8.21,8.21,0,0,0,.159-2.1,8.208,8.208,0,0,0-.159-2.1,1.5,1.5,0,0,0-2.777,0,8.2,8.2,0,0,0-.16,2.1,8.2,8.2,0,0,0,.16,2.1" transform="translate(-59.196 -29.011)" fill="#fff"/>
      <path id="Pfad_1147" data-name="Pfad 1147" d="M201.438,52.428a5.271,5.271,0,0,1-5.138,0,3.455,3.455,0,0,1-1.5-1.928,10.029,10.029,0,0,1-.319-2.875,10.029,10.029,0,0,1,.319-2.876,3.456,3.456,0,0,1,1.5-1.928,5.271,5.271,0,0,1,5.138,0,3.457,3.457,0,0,1,1.5,1.928,9.644,9.644,0,0,1,.319,2.876,9.643,9.643,0,0,1-.319,2.875,3.455,3.455,0,0,1-1.5,1.928m-3.957-2.7a1.5,1.5,0,0,0,2.776,0,8.19,8.19,0,0,0,.16-2.1,8.189,8.189,0,0,0-.16-2.1,1.5,1.5,0,0,0-2.776,0,8.2,8.2,0,0,0-.16,2.1,8.2,8.2,0,0,0,.16,2.1" transform="translate(-133.848 -29.011)" fill="#fff"/>
      <path id="Pfad_1148" data-name="Pfad 1148" d="M236.05,53.306h-2.76a.237.237,0,0,1-.239-.16l-1.644-3.7h-1.037a.085.085,0,0,0-.1.1v3.606a.141.141,0,0,1-.159.16h-2.489a.141.141,0,0,1-.16-.16V42.615a.141.141,0,0,1,.16-.16h4.42a4.051,4.051,0,0,1,2.872.966,3.294,3.294,0,0,1,1.037,2.529,3.517,3.517,0,0,1-.463,1.811,3.105,3.105,0,0,1-1.324,1.221l1.994,4.133a.134.134,0,0,1,0,.128.114.114,0,0,1-.112.064m-4.18-6.175a1.337,1.337,0,0,0,.933-.311,1.195,1.195,0,0,0,0-1.675,1.338,1.338,0,0,0-.933-.311h-1.5a.085.085,0,0,0-.1.1v2.106a.085.085,0,0,0,.1.1Z" transform="translate(-156.549 -29.219)" fill="#fff"/>
    </g>
  </g>
</svg>
