<svg id="Ebene_1" data-name="Ebene 1" xmlns="http://www.w3.org/2000/svg" width="80" height="80" viewBox="0 0 80 80">
  <g id="Gruppe_1341" data-name="Gruppe 1341" transform="translate(3.5 3.5)">
    <path id="Pfad_1187" data-name="Pfad 1187" d="M36.567,71.843l-1.1-8.779a10.088,10.088,0,0,1-1.682-.825c-.527-.324-1.041-.66-1.543-1.028l-8.163,3.428L16.54,51.606l7.065-5.351a6.721,6.721,0,0,1-.07-.927V43.475a6.8,6.8,0,0,1,.07-.927L16.54,37.2l7.541-13.032,8.163,3.428a17.651,17.651,0,0,1,1.574-1.028,14.213,14.213,0,0,1,1.644-.825l1.1-8.779H51.65l1.1,8.779a10.089,10.089,0,0,1,1.682.825c.527.324,1.041.66,1.543,1.028l8.163-3.428L71.677,37.2l-7.065,5.351a6.721,6.721,0,0,1,.07.927v1.854a3.254,3.254,0,0,1-.14.927l7.065,5.351L64.066,64.639l-8.093-3.428A17.651,17.651,0,0,1,54.4,62.239a14.213,14.213,0,0,1-1.644.825l-1.1,8.779Zm4.8-5.485h5.415l.959-7.268a15.412,15.412,0,0,0,3.942-1.612,16.649,16.649,0,0,0,3.326-2.571l6.786,2.812,2.672-4.666-5.9-4.456a9.928,9.928,0,0,0,.482-2.025,17.357,17.357,0,0,0,.14-2.158,16.148,16.148,0,0,0-.14-2.158,9.527,9.527,0,0,0-.482-2.025l5.9-4.456-2.672-4.666-6.786,2.882a15.153,15.153,0,0,0-3.326-2.641,15.412,15.412,0,0,0-3.942-1.612l-.889-7.268H41.436l-.959,7.268a15.412,15.412,0,0,0-3.942,1.612,16.649,16.649,0,0,0-3.326,2.571l-6.786-2.812-2.672,4.666,5.9,4.386a11.485,11.485,0,0,0-.482,2.057,15.979,15.979,0,0,0-.14,2.2,15.475,15.475,0,0,0,.14,2.127,11.485,11.485,0,0,0,.482,2.057l-5.9,4.456,2.672,4.666,6.786-2.882a15.153,15.153,0,0,0,3.326,2.641,15.412,15.412,0,0,0,3.942,1.612Zm2.882-12.347a9.6,9.6,0,0,0,9.6-9.6,9.6,9.6,0,0,0-9.6-9.6A9.619,9.619,0,0,0,37.424,51.2a9.229,9.229,0,0,0,6.824,2.812Z" transform="translate(-8.262 -8.416)" fill="#fff"/>
    <circle id="Ellipse_192" data-name="Ellipse 192" cx="36.5" cy="36.5" r="36.5" fill="none" stroke="#fff" stroke-miterlimit="10" stroke-width="7"/>
    <line id="Linie_207" data-name="Linie 207" x2="51" y2="52" transform="translate(11 11)" fill="#fff" stroke="#fff" stroke-miterlimit="10" stroke-width="7"/>
  </g>
</svg>
