<svg xmlns="http://www.w3.org/2000/svg" width="72" height="72" viewBox="0 0 72 72">
  <g id="Ebene_1" data-name="Ebene 1" transform="translate(-0.827 -0.826)">
    <g id="Gruppe_1337" data-name="Gruppe 1337" transform="translate(4.018 4.018)">
      <g id="Gruppe_1336" data-name="Gruppe 1336" transform="translate(0 0)">
        <circle id="Ellipse_189" data-name="Ellipse 189" cx="32.5" cy="32.5" r="32.5" transform="translate(0.309 0.308)" fill="none" stroke="#fff" stroke-miterlimit="10" stroke-width="7"/>
        <line id="Linie_204" data-name="Linie 204" x2="48" y2="49" transform="translate(8.309 8.308)" fill="#fff" stroke="#fff" stroke-miterlimit="10" stroke-width="7"/>
      </g>
      <path id="Pfad_1184" data-name="Pfad 1184" d="M34.76,64.883a31.041,31.041,0,0,1-10.134-3.836,21.24,21.24,0,0,1-5.76-5.135c-1.729-2.25-3.424-4.523-5.107-6.807a.9.9,0,0,1,.12-1.363c1.924-1.826,3.842-3.664,5.794-5.462,1.053-.973,2.113-1.947,3.149-2.937a14.049,14.049,0,0,1,4.712-3.212A14.308,14.308,0,0,1,31.56,35.2c1.1-.074,2.164.109,3.246.132a1.784,1.784,0,0,1,1.048.349c.04.126.137.109.235.086l.326.137c.04.126.137.1.235.086.779.149,1.42.7,2.221.784.183.034.372.074.555.109.979.006,1.958.006,2.937.023a.648.648,0,0,0,.4-.132h.555a28.283,28.283,0,0,0,3.074-1.134,9.436,9.436,0,0,1,2.508-.487,9.27,9.27,0,0,1,2.857.252c.338.092.7-.092,1,.16.04.132.137.109.235.086a11.754,11.754,0,0,1,2.221.779c.223.109.447.223.67.332a17.64,17.64,0,0,1,3.492,2.679c1.866,1.775,3.733,3.55,5.628,5.3,1.094,1.008,2.2,2,3.258,3.052a.861.861,0,0,1,.1,1.374c-1.7,2.267-3.355,4.569-5.118,6.784a24.118,24.118,0,0,1-3.435,3.4,23.767,23.767,0,0,1-4.139,2.7,32.972,32.972,0,0,1-5.216,2.044c-1.328.447-2.725.567-4.065.956-.378.109-.807-.04-1.179.166-.189.011-.4-.109-.561.08-2.032.166-4.071.1-6.109.143a.43.43,0,0,0-.447-.109c-.555-.046-1.111-.1-1.66-.143-.08-.172-.218-.08-.338-.08-.269.052-.5-.183-.779-.109-.195,0-.344-.206-.555-.109ZM16.772,50.273c1.053,1.391,2.01,2.7,3.017,3.973A21.594,21.594,0,0,0,24.6,58.872a23.39,23.39,0,0,0,4.563,2.462,32.123,32.123,0,0,0,6.681,1.889,26.907,26.907,0,0,0,4.282.406A29.092,29.092,0,0,0,45.77,63.3c1.454-.292,2.9-.573,4.334-.985a27.87,27.87,0,0,0,8.015-3.859c.721-.492,1.254-1.156,1.906-1.695.687-.567,1.225-1.265,1.849-1.884.647-.647,1.036-1.506,1.632-2.21.618-.739,1.145-1.546,1.746-2.37-1.019-.132-1.987-.04-2.954-.12a28.1,28.1,0,0,1-4.431-.882,21.573,21.573,0,0,0-5.027-.727c-.647,0-1.294-.04-1.947,0a8.608,8.608,0,0,0-3.469.876,14.077,14.077,0,0,1-5.164,1.695,12.084,12.084,0,0,1-6.979-1.414,11.261,11.261,0,0,0-5.3-1.237c-.819-.017-1.632.155-2.445.195a25.611,25.611,0,0,0-4.792.985,22.169,22.169,0,0,1-4.065.59c-.59.029-1.185,0-1.906,0Zm-1.111-1.752c1.277-.109,2.4-.023,3.544-.109a27.525,27.525,0,0,0,4.872-.933,19.83,19.83,0,0,1,3.83-.641,21.033,21.033,0,0,1,3.452-.052,12.874,12.874,0,0,1,4.162,1.076,15.47,15.47,0,0,0,3.349,1.26,16.711,16.711,0,0,0,3.137.246,6.414,6.414,0,0,0,2.256-.452c1.712-.613,3.235-1.718,5.1-1.969a16.724,16.724,0,0,1,2.771-.206c.487.017.985.063,1.477.08a19.055,19.055,0,0,1,3.641.521c.71.16,1.4.435,2.107.561,1.116.195,2.227.435,3.372.521,1.2.086,2.376,0,3.687.086-1.134-1.116-2.21-2.084-3.275-3.063-1.9-1.752-3.773-3.527-5.639-5.307a11.2,11.2,0,0,0-2.593-1.872A12.7,12.7,0,0,0,50.43,37a8.282,8.282,0,0,0-4.374.67,19.652,19.652,0,0,1-1.889.7,14.817,14.817,0,0,1-4.408.332,6.558,6.558,0,0,1-1.34-.177,20.833,20.833,0,0,1-3.092-1.145,9.485,9.485,0,0,0-4.534-.258,11.225,11.225,0,0,0-6.223,3.063c-1.025.973-2.067,1.929-3.109,2.891-1.906,1.763-3.779,3.555-5.788,5.456Z" transform="translate(-8.31 -17.558)" fill="#fff" stroke="#fff" stroke-miterlimit="10" stroke-width="3"/>
    </g>
  </g>
</svg>
