<?xml version="1.0" encoding="UTF-8"?>
<svg id="Ebene_2" data-name="Ebene 2" xmlns="http://www.w3.org/2000/svg" viewBox="0 0 288.05 98.35">
  <defs>
    <style>
      .cls-1 {
        fill: #fff;
      }

      .cls-2 {
        fill: #fddb3a;
      }

      .cls-3 {
        fill: #3e4148;
        fill-rule: evenodd;
      }
    </style>
  </defs>
  <g id="Ebene_1-2" data-name="Ebene 1">
    <path class="cls-3" d="m288.05,14.38v83.97H0V14.9c0-3.95,1.57-7.74,4.36-10.54C7.16,1.57,10.95,0,14.9,0h258.76c3.81,0,7.47,1.51,10.17,4.21,2.7,2.7,4.21,6.36,4.21,10.17h0Z"/>
    <path class="cls-2" d="m271.1,88.15v-7.06c0-.34.17-.51.51-.51h7.11c.34,0,.51.17.51.51v7.06c0,.34-.17.51-.51.51h-7.11c-.34,0-.51-.17-.51-.51h0Z"/>
    <path class="cls-1" d="m114.03,46.09h-7.98c-.34,0-.51-.17-.51-.51v-12.95l-10.54-20.78c-.14-.38,0-.56.41-.56h8.04c.34,0,.61.17.82.51l5.83,11.87h.15l5.73-11.87c.14-.34.41-.51.82-.51h7.88c.41,0,.55.19.41.56l-10.54,20.78v12.95c0,.34-.17.51-.51.51h0Z"/>
    <path class="cls-1" d="m143.92,46.09h-8.14c-.07,0-.15-.05-.26-.15-.07-.07-.1-.14-.1-.21v-26.15c0-.14-.08-.24-.26-.31h-8.75c-.07,0-.14-.03-.21-.1l-.05-.05s-.02-.05-.05-.05c-.03-.07-.05-.17-.05-.31v-6.96c0-.27.12-.44.36-.51h26.87c.14,0,.26.05.36.15.03.03.05.07.05.1.07.07.1.15.1.26v6.96c0,.17-.05.31-.15.41-.07.07-.15.1-.26.1h-8.65c-.1,0-.17.02-.2.05l-.1.1v26.31c-.03.1-.12.21-.26.31-.03.03-.12.05-.26.05h0Z"/>
    <path class="cls-1" d="m157.23,45.58V11.8c0-.34.17-.51.51-.51h7.98c.34,0,.51.17.51.51v12.33c0,.2.1.31.31.31h9.47c.2,0,.31-.1.31-.31v-12.33c0-.34.17-.51.51-.51h7.98c.34,0,.51.17.51.51v33.78c0,.34-.17.51-.51.51h-7.98c-.34,0-.51-.17-.51-.51v-12.85c0-.21-.1-.31-.31-.31h-9.47c-.2,0-.31.1-.31.31v12.85c0,.34-.17.51-.51.51h-7.98c-.34,0-.51-.17-.51-.51h0Z"/>
    <path class="cls-1" d="m190.96,45.58V11.8c0-.34.17-.51.51-.51h22.78c.34,0,.51.17.51.51v6.6c0,.34-.17.51-.51.51h-13.97c-.21,0-.31.1-.31.31v5.27c0,.2.1.31.31.31h11.46c.34,0,.51.17.51.51v6.45c0,.34-.17.51-.51.51h-11.46c-.21,0-.31.1-.31.31v5.58c0,.2.1.31.31.31h13.97c.34,0,.51.17.51.51v6.6c0,.34-.17.51-.51.51h-22.78c-.34,0-.51-.17-.51-.51h0Z"/>
    <path class="cls-1" d="m219.46,45.58V11.8c0-.34.17-.51.51-.51h7.52c.44,0,.73.17.87.51l10.49,19.71h.21V11.8c0-.34.17-.51.51-.51h7.16c.34,0,.51.17.51.51v33.78c0,.34-.17.51-.51.51h-7.52c-.44,0-.73-.17-.87-.51l-10.39-19.65h-.31v19.65c0,.34-.17.51-.51.51h-7.16c-.34,0-.51-.17-.51-.51h0Z"/>
    <path class="cls-1" d="m10.68,85.96V13.11c0-.74.4-1.1,1.19-1.1h17.64c1.03,0,1.71.37,2.03,1.1l18.72,39.18h.48l18.24-39.18c.32-.74.99-1.1,2.03-1.1h17.4c.79,0,1.19.37,1.19,1.1v72.85c0,.74-.4,1.1-1.19,1.1h-16.57c-.8,0-1.19-.37-1.19-1.1v-38.63h-.6l-14.54,32.61c-.33.77-1.1.8-2.13.8l-7.85-.05c-.88,0-1.66.16-2.3-.8l-12.99-32.56h-.6v38.63c0,.74-.4,1.1-1.19,1.1H11.87c-.79,0-1.19-.37-1.19-1.1h0Z"/>
    <path class="cls-1" d="m129.59,88.03v-33.78c0-.34.17-.51.51-.51h7.52c.44,0,.73.17.87.51l10.49,19.7h.21v-19.7c0-.34.17-.51.51-.51h7.17c.34,0,.51.17.51.51v33.78c0,.34-.17.51-.51.51h-7.52c-.44,0-.73-.17-.87-.51l-10.39-19.65h-.31v19.65c0,.34-.17.51-.51.51h-7.17c-.34,0-.51-.17-.51-.51h0Z"/>
    <path class="cls-1" d="m163.01,88.03v-33.78c0-.34.17-.51.51-.51h7.98c.34,0,.51.17.51.51v33.78c0,.34-.17.51-.51.51h-7.98c-.34,0-.51-.17-.51-.51h0Z"/>
    <path class="cls-1" d="m193.31,88.55h-8.14c-.07,0-.15-.05-.26-.15-.07-.07-.1-.14-.1-.21v-26.15c0-.14-.09-.24-.26-.31h-8.75c-.07,0-.14-.04-.2-.1l-.05-.05s-.02-.05-.05-.05c-.03-.07-.05-.17-.05-.31v-6.96c0-.27.12-.44.36-.51h26.87c.14,0,.26.05.36.15.03.03.05.07.05.1.07.07.1.15.1.26v6.96c0,.17-.05.31-.15.41-.07.07-.15.1-.26.1h-8.65c-.1,0-.17.02-.2.05l-.1.1v26.31c-.03.1-.12.21-.26.31-.03.03-.12.05-.26.05h0Z"/>
    <path class="cls-1" d="m119.01,86.4c-2.32,1.43-5.07,2.14-8.24,2.14s-5.92-.72-8.24-2.14c-2.32-1.43-3.92-3.49-4.81-6.18-.68-2.16-1.02-5.23-1.02-9.22s.34-7.06,1.02-9.22c.89-2.69,2.49-4.75,4.81-6.18,2.32-1.43,5.07-2.14,8.24-2.14s5.92.72,8.24,2.14c2.32,1.43,3.92,3.49,4.81,6.18.68,2.03,1.02,5.1,1.02,9.22s-.34,7.2-1.02,9.22c-.89,2.69-2.49,4.75-4.81,6.18h0Zm-12.69-8.67c.65,1.99,2.13,2.99,4.45,2.99s3.8-1,4.45-2.99c.34-.96.51-3.21.51-6.73s-.17-5.77-.51-6.73c-.65-2-2.13-2.99-4.45-2.99s-3.8,1-4.45,2.99c-.34.96-.51,3.21-.51,6.73s.17,5.77.51,6.73h0Z"/>
    <path class="cls-1" d="m227.48,86.4c-2.32,1.43-5.07,2.14-8.24,2.14s-5.92-.72-8.24-2.14c-2.32-1.43-3.92-3.49-4.81-6.18-.68-2.16-1.02-5.23-1.02-9.22s.34-7.06,1.02-9.22c.89-2.69,2.49-4.75,4.81-6.18,2.32-1.43,5.07-2.14,8.24-2.14s5.92.72,8.24,2.14c2.32,1.43,3.92,3.49,4.81,6.18.68,2.03,1.02,5.1,1.02,9.22s-.34,7.2-1.02,9.22c-.89,2.69-2.49,4.75-4.81,6.18h0Zm-12.69-8.67c.65,1.99,2.13,2.99,4.45,2.99s3.8-1,4.45-2.99c.34-.96.51-3.21.51-6.73s-.17-5.77-.51-6.73c-.65-2-2.13-2.99-4.45-2.99s-3.81,1-4.45,2.99c-.34.96-.51,3.21-.51,6.73s.17,5.77.51,6.73h0Z"/>
    <path class="cls-1" d="m265.68,88.55h-8.85c-.38,0-.63-.17-.77-.51l-5.27-11.87h-3.33c-.21,0-.31.1-.31.31v11.57c0,.34-.17.51-.51.51h-7.98c-.34,0-.51-.17-.51-.51v-33.78c0-.34.17-.51.51-.51h14.18c3.92,0,6.99,1.03,9.21,3.1,2.22,2.06,3.33,4.77,3.33,8.11,0,2.18-.49,4.12-1.48,5.81-.99,1.69-2.41,2.99-4.25,3.92l6.4,13.26c.07.14.07.27,0,.41-.07.14-.19.21-.36.21h0Zm-13.41-19.81c1.26,0,2.26-.33,2.99-1,.73-.67,1.1-1.56,1.1-2.69s-.37-2.02-1.1-2.69c-.73-.67-1.73-1-2.99-1h-4.81c-.21,0-.31.1-.31.31v6.76c0,.21.1.31.31.31h4.81Z"/>
  </g>
</svg>