<svg xmlns="http://www.w3.org/2000/svg" xmlns:xlink="http://www.w3.org/1999/xlink" width="396.781" height="238.712" viewBox="0 0 396.781 238.712">
  <defs>
    <clipPath id="clip-path">
      <rect id="Rechteck_441" data-name="Rechteck 441" width="396.782" height="238.712" fill="none"/>
    </clipPath>
  </defs>
  <g id="Gruppe_1319" data-name="Gruppe 1319" transform="translate(20484 2841.712)">
    <g id="Gruppe_1318" data-name="Gruppe 1318" transform="translate(-20504 -3414)">
      <g id="Gruppe_1134" data-name="Gruppe 1134" transform="translate(6.895 389)" opacity="0.47">
        <g id="Gruppe_1133" data-name="Gruppe 1133" transform="translate(13.105 183.288)">
          <g id="Gruppe_1132" data-name="Gruppe 1132" clip-path="url(#clip-path)">
            <path id="Pfad_1008" data-name="Pfad 1008" d="M336.734,90.016V96.3H4.342c-.47-.656-.817-.678-1.277,0h-.01v-.157c-.1.011-.2.022-.295.038v-24.1C2.76,32.27,34.632,0,73.954,0H250.769a38.457,38.457,0,0,0-3.8,16.715V51.844a37.939,37.939,0,0,0,37.7,38.172Z" transform="translate(-1.333)" fill="#585858"/>
            <rect id="Rechteck_440" data-name="Rechteck 440" width="333.974" height="46.115" transform="translate(1.551 96.364)" fill="#585858"/>
            <path id="Pfad_1009" data-name="Pfad 1009" d="M336.734,262.5v24.229c0,39.805-31.877,72.069-71.194,72.069H80.546a38.872,38.872,0,0,0,.6-6.765V307.117a37.939,37.939,0,0,0-37.7-38.172H2.76V263c.543-.141,1.091-.282,1.634-.429-.021-.027-.036-.054-.052-.076Z" transform="translate(-1.333 -120.087)" fill="#585858"/>
            <path id="Pfad_1010" data-name="Pfad 1010" d="M4.394,262.154c-.543.146-1.091.288-1.634.429v-.624c.1-.016.2-.027.295-.038v.157h.01c.46-.678.807-.656,1.277,0,.016.022.031.049.052.076" transform="translate(-1.333 -119.665)" fill="#585858"/>
            <path id="Pfad_1011" data-name="Pfad 1011" d="M4.394,262.154c-.543.146-1.091.288-1.634.429.047-.087.088-.163.134-.239a.019.019,0,0,0,.005-.011c.031-.054.062-.1.093-.152.021-.033.041-.06.057-.087l.016-.016c.46-.678.807-.656,1.277,0,.016.022.031.049.052.076" transform="translate(-1.333 -119.665)" fill="#585858"/>
            <path id="Pfad_1012" data-name="Pfad 1012" d="M3.611,261.8l-.854.758.854-.758" transform="translate(-1.332 -119.769)" fill="#585858"/>
            <path id="Pfad_1013" data-name="Pfad 1013" d="M3.055,262.21v.157a.021.021,0,0,1-.005.016.381.381,0,0,1,0,.109v.038c-.005-.005-.016-.011-.021-.022a.245.245,0,0,1-.036-.038c-.036-.033-.072-.065-.109-.1s-.083-.081-.124-.119c.1-.016.2-.027.295-.038" transform="translate(-1.333 -119.954)" fill="#585858"/>
            <path id="Pfad_1014" data-name="Pfad 1014" d="M17.577,347.136l.295-1.224.23-.278.291-.824.22-.175-.22-.239.657-1.514.22-.175-.22-.238a2.481,2.481,0,0,0,.482-.652c.173-.544.265-1.117.389-1.677,0-.1.01-.194.014-.29.378-1.616.756-3.232,1.168-4.991-.584.079-1.045.1-1.488.209a14,14,0,0,1-2.264.612,14.617,14.617,0,0,1-2.949-.2,14.108,14.108,0,0,1-2.98-.615A17.243,17.243,0,0,1,7.179,332.9a16.823,16.823,0,0,1-6-7.759,36.778,36.778,0,0,1-1.044-4.291A1.508,1.508,0,0,0,0,320.576v-3.855a21.1,21.1,0,0,1,.55-2.464,24.55,24.55,0,0,1,1.532-3.746,23.633,23.633,0,0,1,2.382-3.452A16.023,16.023,0,0,1,6.4,305.3l.155-.111a13.451,13.451,0,0,1,4.988-2.5c1.191-.3,2.411-.47,3.619-.693.368-.068.737-.12,1.09-.177a3.557,3.557,0,0,0,.906.3,14.652,14.652,0,0,1,6.909,2.216,16.471,16.471,0,0,1,4.906,4.721,1.978,1.978,0,0,0,.285.274l.1.1c.339.735.661,1.478,1.019,2.2a15.721,15.721,0,0,1,1.376,4.623,47.171,47.171,0,0,1,.122,5.651c.036,1.03.056,2.066-.009,3.094-.053.839-.237,1.67-.373,2.5q-.323,1.977-.658,3.953a59.88,59.88,0,0,1-1.961,8.1,45.557,45.557,0,0,1-4.967,10.829,28.854,28.854,0,0,1-4.853,5.978c-1.756,1.585-3.687,2.958-5.541,4.424-.293-.162-.391-.033-.37.274L10.89,362.6l-.132,0c-.5-.037-.625-.315-.388-.75,1.088-2,2.227-3.962,3.268-5.983.767-1.488,1.41-3.047,2.109-4.573.046-.1.1-.2.151-.292l.1-.151q.543-1.3,1.087-2.6l.1-.144q.015-.27.03-.54l.362-.428" transform="translate(0 -138.071)" fill="#585858"/>
            <path id="Pfad_1015" data-name="Pfad 1015" d="M78.119,362.875c.317-.685.628-1.374.953-2.055s.649-1.334.982-2q1.97-3.911,3.943-7.819c.108-.214.191-.441.286-.662l.1-.151q.2-.541.39-1.083l.132-.282.3-.688.1-.146,0-.537.4-.432.169-.537.1-.145.813-2.468.234-.566,2.267-8.438c-.936.2-1.661.321-2.362.525a10.534,10.534,0,0,1-5.518.087c-.836-.2-1.677-.39-2.516-.584l-.275-.106a16.241,16.241,0,0,1-4.9-3.029,16.9,16.9,0,0,1-5.6-14.84,18.144,18.144,0,0,1,1.361-5.039,16.146,16.146,0,0,1,4.245-5.859,14.6,14.6,0,0,1,6.725-3.433,16.575,16.575,0,0,1,3.828-.409,15.242,15.242,0,0,1,8.7,2.885,16.7,16.7,0,0,1,4.286,4.509,15.949,15.949,0,0,1,2.5,6.968c.081.788.119,1.584.13,2.377.02,1.445.072,2.9-.012,4.336-.1,1.683-.34,3.357-.5,5.036-.074.786-.04,1.587-.158,2.364-.111.73-.361,1.437-.544,2.155-.69,2.713-1.306,5.45-2.093,8.132a39.657,39.657,0,0,1-1.706,4.12c-.042.1-.07.2-.1.307l-.1.15c-1.013,1.824-1.991,3.671-3.052,5.463a16.761,16.761,0,0,1-1.893,2.631c-1.287,1.443-2.664,2.8-4,4.188l-.145.105L83.735,359.3c-.306-.181-.385-.022-.371.275l-.547.412c-.446-.307-.145.232-.282.275-1.1.811-2.186,1.636-3.3,2.423a3.693,3.693,0,0,1-.877.338l-.239-.145" transform="translate(-32.827 -138.238)" fill="#585858"/>
            <path id="Pfad_1016" data-name="Pfad 1016" d="M578.611,41.743l-.295,1.224-.23.278-.291.824-.22.175.22.239L577.139,46l-.22.175.22.239a2.482,2.482,0,0,0-.482.652c-.173.544-.265,1.117-.389,1.677-.005.1-.01.194-.014.29-.378,1.616-.756,3.232-1.168,4.991.584-.079,1.045-.1,1.488-.209a14,14,0,0,1,2.264-.613,14.617,14.617,0,0,1,2.949.2,14.109,14.109,0,0,1,2.98.615,17.246,17.246,0,0,1,4.241,1.963,16.824,16.824,0,0,1,6,7.759,36.884,36.884,0,0,1,1.045,4.291,1.478,1.478,0,0,0,.131.278v3.855a21.1,21.1,0,0,1-.549,2.464,24.547,24.547,0,0,1-1.532,3.746,23.628,23.628,0,0,1-2.382,3.452,16.018,16.018,0,0,1-1.941,1.764l-.155.111a13.452,13.452,0,0,1-4.988,2.5c-1.191.3-2.411.47-3.619.693-.368.068-.737.12-1.09.177a3.557,3.557,0,0,0-.906-.3,14.652,14.652,0,0,1-6.909-2.216,16.471,16.471,0,0,1-4.906-4.721,2.008,2.008,0,0,0-.285-.274l-.1-.1c-.339-.735-.661-1.478-1.019-2.2a15.722,15.722,0,0,1-1.376-4.623,47.178,47.178,0,0,1-.122-5.651c-.036-1.03-.056-2.066.009-3.093.053-.839.237-1.67.373-2.5q.323-1.978.658-3.953a59.875,59.875,0,0,1,1.961-8.1A45.559,45.559,0,0,1,572.279,38.5a28.85,28.85,0,0,1,4.853-5.978c1.756-1.585,3.687-2.958,5.541-4.424.293.162.391.033.37-.274l2.253-1.541.132,0c.5.037.625.315.388.75-1.088,2-2.227,3.962-3.268,5.983-.767,1.488-1.41,3.047-2.11,4.573-.046.1-.1.2-.151.292l-.1.151-1.087,2.6-.1.144q-.015.27-.03.54l-.362.428" transform="translate(-272.553 -12.021)" fill="#585858"/>
            <path id="Pfad_1017" data-name="Pfad 1017" d="M518.04,25.958c-.317.685-.628,1.374-.953,2.055s-.649,1.334-.982,2q-1.97,3.911-3.943,7.819c-.108.214-.191.441-.286.662l-.1.151-.39,1.083-.132.282-.3.688-.1.146,0,.537-.4.432-.169.537-.1.145q-.407,1.234-.814,2.468l-.234.566-2.267,8.438c.936-.2,1.661-.321,2.362-.525a10.534,10.534,0,0,1,5.518-.087c.836.2,1.677.39,2.516.584l.275.106a16.241,16.241,0,0,1,4.9,3.029,16.9,16.9,0,0,1,5.6,14.84,18.149,18.149,0,0,1-1.361,5.039,16.148,16.148,0,0,1-4.245,5.859,14.6,14.6,0,0,1-6.725,3.433,16.575,16.575,0,0,1-3.828.409,15.243,15.243,0,0,1-8.7-2.885,16.7,16.7,0,0,1-4.286-4.509,15.95,15.95,0,0,1-2.5-6.968c-.081-.788-.119-1.584-.13-2.377-.02-1.445-.072-2.9.012-4.336.1-1.683.34-3.357.5-5.036.074-.786.04-1.587.158-2.364.111-.73.361-1.437.544-2.155.69-2.713,1.306-5.45,2.093-8.132a39.653,39.653,0,0,1,1.706-4.12c.042-.1.07-.2.1-.307l.1-.15c1.013-1.824,1.991-3.671,3.052-5.463a16.757,16.757,0,0,1,1.893-2.631c1.287-1.443,2.664-2.8,4-4.188l.145-.105,1.822-1.385c.306.181.385.022.371-.275l.547-.412c.446.307.145-.232.282-.275,1.1-.811,2.186-1.636,3.3-2.423a3.693,3.693,0,0,1,.877-.338l.239.145" transform="translate(-239.698 -11.809)" fill="#585858"/>
            <path id="Pfad_1018" data-name="Pfad 1018" d="M749.98,231.459c.028.4-.1.57-.484.359l.484-.359" transform="translate(-362.016 -105.886)" fill="#fcfcfc"/>
            <path id="Pfad_1019" data-name="Pfad 1019" d="M655.351,235.443c.019.388-.084.6-.485.359l.485-.359" transform="translate(-316.308 -107.709)" fill="#fbfbfb"/>
            <path id="Pfad_1020" data-name="Pfad 1020" d="M531.884,39.036l.306-.741-.306.741" transform="translate(-256.907 -17.519)" fill="#030303"/>
            <path id="Pfad_1021" data-name="Pfad 1021" d="M657.559,233.785c-.18.056.214.761-.369.36l.369-.36" transform="translate(-317.431 -106.95)" fill="#fbfbfb"/>
            <path id="Pfad_1022" data-name="Pfad 1022" d="M537.205,26.04l.172-.369-.172.369" transform="translate(-259.477 -11.744)" fill="#050505"/>
            <path id="Pfad_1023" data-name="Pfad 1023" d="M623.192,33.345l.3-.363-.3.363" transform="translate(-301.009 -15.088)" fill="#040404"/>
            <path id="Pfad_1024" data-name="Pfad 1024" d="M668.785,227.084l-.313-.19.529-.274-.216.464" transform="translate(-322.88 -103.673)" fill="#030303"/>
            <path id="Pfad_1025" data-name="Pfad 1025" d="M552.814,60.081l-.359-.138.359.138" transform="translate(-266.843 -27.422)" fill="#020202"/>
            <path id="Pfad_1026" data-name="Pfad 1026" d="M756.307,227.556l-.173.005.084-.216.089.21" transform="translate(-365.222 -104.005)" fill="#fdfdfd"/>
            <path id="Pfad_1027" data-name="Pfad 1027" d="M536.2,28.2l.127-.191-.127.191" transform="translate(-258.989 -12.814)" fill="#050505"/>
            <path id="Pfad_1028" data-name="Pfad 1028" d="M625.512,27.535l.126-.189-.126.189" transform="translate(-302.13 -12.51)" fill="#050505"/>
            <path id="Pfad_1029" data-name="Pfad 1029" d="M538.524,22.893l.134-.2-.134.2" transform="translate(-260.114 -10.383)" fill="#010101"/>
            <path id="Pfad_1030" data-name="Pfad 1030" d="M628.506,20.9l.134-.2-.134.2" transform="translate(-303.576 -9.472)" fill="#010101"/>
            <path id="Pfad_1031" data-name="Pfad 1031" d="M650.078,239.442l-.19.138.19-.138" transform="translate(-313.904 -109.538)" fill="#fbfbfb"/>
            <path id="Pfad_1032" data-name="Pfad 1032" d="M594.7,120.977l.128.126-.128-.126" transform="translate(-287.248 -55.344)" fill="#020202"/>
            <path id="Pfad_1033" data-name="Pfad 1033" d="M767.1,366.07l.2-.145-.2.145" transform="translate(-370.517 -167.401)" fill="#010101"/>
            <path id="Pfad_1034" data-name="Pfad 1034" d="M534.535,32.184l.126-.19-.126.19" transform="translate(-258.187 -14.636)" fill="#060606"/>
          </g>
        </g>
      </g>
    </g>
    <line id="Linie_200" data-name="Linie 200" x2="334" transform="translate(-20482.5 -2745.5)" fill="none" stroke="#a1a1a1" stroke-width="3"/>
    <line id="Linie_201" data-name="Linie 201" x2="334" transform="translate(-20482.5 -2698.5)" fill="none" stroke="#a1a1a1" stroke-width="3"/>
  </g>
</svg>
